<svg xmlns="http://www.w3.org/2000/svg" width="800" height="560" viewBox="0 0 800 560" role="img" aria-label="Иллюстрация лендинга">
  <defs>
    <linearGradient id="bg" x1="0" y1="0" x2="1" y2="1">
      <stop offset="0%" stop-color="#1d2f52"/>
      <stop offset="100%" stop-color="#0f1a32"/>
    </linearGradient>
    <linearGradient id="accent" x1="0" y1="0" x2="1" y2="1">
      <stop offset="0%" stop-color="#ff8a3d"/>
      <stop offset="100%" stop-color="#ffb279"/>
    </linearGradient>
  </defs>

  <rect width="800" height="560" fill="url(#bg)" rx="28"/>
  <rect x="56" y="64" width="688" height="432" fill="#0b1327" opacity="0.9" rx="18"/>

  <rect x="96" y="114" width="220" height="14" fill="#c7d2e6" opacity="0.7" rx="7"/>
  <rect x="96" y="140" width="340" height="10" fill="#c7d2e6" opacity="0.35" rx="5"/>

  <rect x="96" y="194" width="180" height="120" fill="#132241" rx="12"/>
  <rect x="292" y="194" width="180" height="120" fill="#132241" rx="12"/>
  <rect x="488" y="194" width="180" height="120" fill="#132241" rx="12"/>

  <rect x="96" y="350" width="256" height="16" fill="url(#accent)" rx="8"/>
  <rect x="96" y="376" width="380" height="10" fill="#c7d2e6" opacity="0.35" rx="5"/>
  <rect x="96" y="398" width="320" height="10" fill="#c7d2e6" opacity="0.25" rx="5"/>

  <circle cx="656" cy="396" r="48" fill="#132241"/>
  <path d="M636 396h40M656 376v40" stroke="#ff8a3d" stroke-width="8" stroke-linecap="round"/>
</svg>
